<svg width="30" height="25" viewBox="0 0 30 25" fill="none" xmlns="http://www.w3.org/2000/svg">
<g clip-path="url(#clip0)">
<path d="M21.9956 11.5288C21.8506 11.2648 21.5319 11.0966 21.1811 11.0966H17.6006V1.50797C17.6006 1.10082 17.1996 0.770386 16.7055 0.770386H13.1251C12.631 0.770386 12.2299 1.10082 12.2299 1.50797V11.0966H8.64949C8.29861 11.0966 7.97995 11.2662 7.83494 11.5288C7.68814 11.7929 7.74543 12.1012 7.97637 12.3195L14.2422 18.2202C14.4122 18.381 14.6575 18.4725 14.9153 18.4725C15.1731 18.4725 15.4183 18.3795 15.5884 18.2202L21.8542 12.3195C22.0869 12.1027 22.1406 11.7929 21.9956 11.5288Z" fill="#333333"/>
<path d="M24.7616 16.9973V21.4228H5.06909V16.9973H1.48865V22.898C1.48865 23.7138 2.29067 24.3732 3.27887 24.3732H26.5518C27.5418 24.3732 28.342 23.7138 28.342 22.898V16.9973H24.7616Z" fill="#333333"/>
</g>
<defs>
<clipPath id="clip0">
<rect width="28.6436" height="23.6028" fill="white" transform="translate(0.593506 0.770386)"/>
</clipPath>
</defs>
</svg>
